<svg xmlns="http://www.w3.org/2000/svg" width="49" height="49" viewBox="0 0 49 49"><g><g><path fill="#fff" d="M24.35.369c13.245 0 24.02 10.776 24.02 24.02 0 13.247-10.775 24.022-24.02 24.022C11.102 48.41.327 37.636.327 24.39.328 11.145 11.103.369 24.35.369zm0 46.04c12.141 0 22.02-9.877 22.02-22.02 0-12.14-9.879-22.018-22.02-22.018-12.143 0-22.02 9.878-22.02 22.019 0 12.142 9.877 22.019 22.02 22.019z"/></g><g><path fill="#fff" d="M33.9 23.548a1.003 1.003 0 0 1 0 1.683l-14.013 9.008a.99.99 0 0 1-1.02.038 1.001 1.001 0 0 1-.522-.879V15.381a.998.998 0 0 1 1.542-.84zm-2.393.842l-11.16-7.175v14.349z"/></g></g></svg>