<svg xmlns="http://www.w3.org/2000/svg" width="408" height="89" viewBox="0 0 408 89"><g><g><path fill="#fff" d="M384.296 28.67H372.69v32.788h11.607V44.473c0-4.08 1.321-7.625 6.061-7.625 5.813 0 5.278 5.52 5.278 8.683v15.927h11.738V41.182c0-8.03-3.57-13.554-12.394-13.554-4.622 0-7.915 1.315-10.547 5.263h-.136z"/></g><g><path fill="#fff" d="M344.462 28.67h-11.6v32.788h11.6V44.473c0-4.08 1.313-7.625 6.077-7.625 5.784 0 5.282 5.52 5.282 8.683v15.927h11.715V41.182c0-8.03-3.55-13.554-12.375-13.554-4.622 0-7.915 1.315-10.553 5.263h-.146z"/></g><g><path fill="#fff" d="M328.12 61.459h-11.612v-3.552h-.126c-2.102 3.302-6.064 4.74-9.894 4.74-9.762 0-16.612-8.152-16.612-17.515 0-9.478 6.724-17.504 16.489-17.504 3.679 0 7.638 1.444 10.143 4.205V28.67h11.612zm-18.457-23.7c-4.77 0-7.536 3.294-7.536 7.373 0 4.218 2.767 7.38 7.536 7.38 4.74 0 7.502-3.162 7.502-7.38 0-4.08-2.762-7.372-7.502-7.372z"/></g><g><path fill="#fff" d="M243.444 28.67h-11.6v32.788h11.6V45.79c0-3.549 0-9.22 5.152-9.22 5.27 0 5.27 5.671 5.27 9.22v15.668h11.613V45.79c0-3.8.256-8.942 5.656-8.942 4.897 0 4.748 5.648 4.748 8.942v15.668h11.613V40.67c0-7.646-2.77-13.04-11.209-13.04-4.489 0-8.829 2.104-11.088 6.307-2.355-4.33-6.463-6.308-11.213-6.308-4.204 0-7.627 1.57-10.417 5.138h-.125z"/></g><g><path fill="#fff" d="M192.275 28.67v19.748c0 10.808 7.64 14.23 17.538 14.23 9.887 0 17.546-3.422 17.546-14.23V28.67h-11.743v17.527c0 4.198-1.063 7.105-5.803 7.105-4.871 0-5.813-2.907-5.813-7.105V28.67z"/></g><g><path fill="#fff" d="M187.007 61.459H175.39v-3.552h-.13c-2.102 3.302-6.061 4.74-9.892 4.74-9.761 0-16.611-8.152-16.611-17.515 0-9.478 6.727-17.504 16.48-17.504 3.693 0 7.649 1.444 10.153 4.205V28.67h11.616zm-18.742-23.7c-4.74 0-7.51 3.294-7.51 7.373 0 4.218 2.77 7.38 7.51 7.38 4.745 0 7.532-3.162 7.532-7.38 0-4.08-2.787-7.372-7.532-7.372z"/></g><g><path fill="#fff" d="M136.227 28.67h-11.613v32.788h11.613V48.29c0-5.653 1.577-9.874 8.046-9.874 1.848 0 3.423.128 5 1.064V28.29h-2.232c-4.623 0-8.448 1.693-10.681 5.797h-.133z"/></g><g><path fill="#fff" d="M117.36 38.294h6.595V28.67h-6.594v-9.874h-11.613v9.874h-3.805v9.624h3.805V61.46h11.613z"/></g><g><path fill="#fff" d="M99.963 29.734c-3.447-1.578-7.12-2.107-10.827-2.107-7.254 0-14.509 3.549-14.509 11.58 0 5.924 3.701 7.765 7.255 8.704 3.697.909 7.385 1.037 7.385 3.674 0 1.718-2.238 2.505-3.688 2.505-2.906 0-6.865-1.724-9.225-3.423L72.12 58.83c3.957 2.5 8.573 3.818 13.332 3.818 7.643 0 15.43-3.55 15.43-12.253 0-6.05-4.089-8.682-9.492-9.728-1.593-.274-5.28-.657-5.28-2.907 0-1.57 2.368-2.23 3.687-2.23 1.98 0 4.49.66 6.207 1.57z"/></g><g><path fill="#fff" d="M62.761.232C45.889 11.42 28.873 23.02 11.86 34.212 4.347 40.01 4.605 48.69 9.758 56.068L62.761 20.64z"/></g><g><path fill="#fff" d="M.24 88.325c16.894-11.193 33.91-22.79 50.926-33.988 7.51-5.775 7.254-14.471 2.11-21.847L.24 67.914z"/></g></g></svg>